<svg width="23" height="23" viewBox="0 0 23 23" fill="none" xmlns="http://www.w3.org/2000/svg">
<path d="M20.7808 17.924C20.433 18.7275 20.0213 19.4672 19.5442 20.1472C18.894 21.0743 18.3616 21.716 17.9513 22.0724C17.3153 22.6573 16.6338 22.9568 15.9041 22.9739C15.3802 22.9739 14.7485 22.8248 14.013 22.5224C13.2752 22.2214 12.5972 22.0724 11.9772 22.0724C11.327 22.0724 10.6296 22.2214 9.88368 22.5224C9.13662 22.8248 8.53481 22.9824 8.07468 22.998C7.37491 23.0278 6.6774 22.7197 5.98118 22.0724C5.53681 21.6848 4.98099 21.0204 4.31515 20.0791C3.60075 19.0739 3.01342 17.9084 2.55329 16.5795C2.06051 15.1442 1.81348 13.7543 1.81348 12.4087C1.81348 10.8673 2.14654 9.53789 2.81366 8.42385C3.33796 7.529 4.03546 6.82312 4.90844 6.30493C5.78142 5.78674 6.72468 5.52267 7.74048 5.50578C8.2963 5.50578 9.02518 5.6777 9.93095 6.01559C10.8342 6.35462 11.4141 6.52655 11.6684 6.52655C11.8585 6.52655 12.5028 6.32552 13.5949 5.92473C14.6278 5.55305 15.4995 5.39916 16.2136 5.45978C18.1487 5.61595 19.6024 6.37876 20.5693 7.75303C18.8386 8.80163 17.9826 10.2703 17.9996 12.1544C18.0152 13.622 18.5476 14.8432 19.5939 15.8129C20.0681 16.2629 20.5977 16.6107 21.1868 16.8578C21.0591 17.2283 20.9242 17.5832 20.7808 17.924ZM16.3428 0.460131C16.3428 1.61039 15.9226 2.68439 15.0849 3.67847C14.0741 4.86023 12.8514 5.54311 11.5256 5.43536C11.5087 5.29736 11.4989 5.15213 11.4989 4.99951C11.4989 3.89526 11.9796 2.71349 12.8333 1.74724C13.2595 1.25801 13.8015 0.851218 14.4588 0.526714C15.1147 0.207053 15.7352 0.0302728 16.3187 0C16.3357 0.153772 16.3428 0.307554 16.3428 0.460116V0.460131Z" fill="black"/>
</svg>
