<svg width="729" height="265" viewBox="0 0 729 265" fill="none" xmlns="http://www.w3.org/2000/svg">
<rect x="0.242188" width="728.158" height="265" rx="40" fill="#090909"/>
<path d="M167.148 136.13C167.291 124.934 173.281 114.34 182.782 108.476C176.788 99.8816 166.748 94.4327 156.303 94.1046C145.162 92.9307 134.361 100.797 128.684 100.797C122.897 100.797 114.156 94.2212 104.743 94.4156C92.4741 94.8135 81.0363 101.816 75.0672 112.584C62.236 134.886 71.807 167.663 84.0982 185.69C90.2477 194.517 97.4348 204.378 106.839 204.028C116.041 203.645 119.478 198.137 130.587 198.137C141.592 198.137 144.816 204.028 154.411 203.806C164.286 203.645 170.508 194.939 176.441 186.028C180.86 179.738 184.26 172.787 186.515 165.431C174.911 160.503 167.161 148.779 167.148 136.13Z" fill="white"/>
<path d="M149.024 82.2491C154.408 75.7604 157.061 67.4203 156.419 59C148.193 59.8673 140.595 63.814 135.138 70.0537C129.802 76.1502 127.025 84.3436 127.55 92.4421C135.778 92.5271 143.868 88.6874 149.024 82.2491Z" fill="white"/>
<path d="M495.374 100.45V114.018H486.903V122.915H495.374V153.147C495.374 163.47 500.026 167.599 511.729 167.599C513.785 167.599 515.744 167.353 517.458 167.058V158.259C515.989 158.406 515.058 158.505 513.443 158.505C508.203 158.505 505.902 156.047 505.902 150.443V122.915H517.458V114.018H505.902V100.45H495.374Z" fill="white"/>
<path d="M547.27 168.336C562.841 168.336 572.39 157.866 572.39 140.513C572.39 123.259 562.792 112.74 547.27 112.74C531.699 112.74 522.102 123.259 522.102 140.513C522.102 157.866 531.65 168.336 547.27 168.336ZM547.27 158.947C538.114 158.947 532.972 152.213 532.972 140.513C532.972 128.912 538.114 122.128 547.27 122.128C556.378 122.128 561.568 128.912 561.568 140.513C561.568 152.163 556.378 158.947 547.27 158.947Z" fill="white"/>
<path d="M580.559 167.304H591.087V135.696C591.087 128.175 596.718 123.112 604.699 123.112C606.56 123.112 609.694 123.456 610.575 123.751V113.329C609.449 113.034 607.441 112.887 605.874 112.887C598.921 112.887 592.996 116.721 591.479 121.981H590.695V113.772H580.559V167.304Z" fill="white"/>
<path d="M636.715 121.735C644.501 121.735 649.593 127.192 649.838 135.598H622.907C623.494 127.241 628.93 121.735 636.715 121.735ZM649.789 152.852C647.83 157.03 643.472 159.34 637.107 159.34C628.685 159.34 623.25 153.392 622.907 144.003V143.413H660.561V139.727C660.561 122.915 651.601 112.74 636.764 112.74C621.732 112.74 612.183 123.603 612.183 140.71C612.183 157.816 621.536 168.336 636.813 168.336C649.006 168.336 657.526 162.437 659.925 152.852H649.789Z" fill="white"/>
<path d="M426.335 147.535C427.147 160.68 438.059 169.087 454.3 169.087C471.657 169.087 482.517 160.273 482.517 146.211C482.517 135.154 476.326 129.04 461.303 125.525L453.234 123.538C443.692 121.296 439.835 118.29 439.835 113.042C439.835 106.419 445.824 102.088 454.807 102.088C463.333 102.088 469.221 106.317 470.286 113.093H481.35C480.69 100.712 469.83 92 454.959 92C438.973 92 428.315 100.712 428.315 113.806C428.315 124.608 434.354 131.028 447.6 134.135L457.04 136.428C466.734 138.721 470.997 142.084 470.997 147.688C470.997 154.21 464.298 158.948 455.162 158.948C445.367 158.948 438.567 154.515 437.602 147.535H426.335Z" fill="white"/>
<path d="M317.28 112.887C310.033 112.887 303.765 116.525 300.533 122.62H299.75V113.772H289.614V185.099H300.142V159.193H300.974C303.765 164.846 309.788 168.189 317.378 168.189C330.843 168.189 339.412 157.522 339.412 140.513C339.412 123.505 330.843 112.887 317.28 112.887ZM314.293 158.701C305.479 158.701 299.946 151.721 299.946 140.562C299.946 129.355 305.479 122.374 314.342 122.374C323.253 122.374 328.591 129.207 328.591 140.513C328.591 151.868 323.253 158.701 314.293 158.701Z" fill="white"/>
<path d="M376.25 112.887C369.003 112.887 362.736 116.525 359.504 122.62H358.72V113.772H348.584V185.099H359.112V159.193H359.945C362.736 164.846 368.758 168.189 376.348 168.189C389.814 168.189 398.383 157.522 398.383 140.513C398.383 123.505 389.814 112.887 376.25 112.887ZM373.263 158.701C364.449 158.701 358.916 151.721 358.916 140.562C358.916 129.355 364.449 122.374 373.312 122.374C382.224 122.374 387.561 129.207 387.561 140.513C387.561 151.868 382.224 158.701 373.263 158.701Z" fill="white"/>
<path d="M270.725 167.304H282.804L256.363 93.7832H244.132L217.69 167.304H229.363L236.113 147.79H264.026L270.725 167.304ZM249.663 107.132H250.526L261.133 138.211H239.006L249.663 107.132Z" fill="white"/>
</svg>
