<svg width="729" height="265" viewBox="0 0 729 265" fill="none" xmlns="http://www.w3.org/2000/svg">
<rect width="728.158" height="265" rx="40" fill="#090909"/>
<path d="M166.905 136.517C167.049 125.321 173.038 114.727 182.54 108.863C176.545 100.269 166.506 94.8199 156.06 94.4918C144.919 93.3179 134.118 101.184 128.441 101.184C122.654 101.184 113.913 94.6084 104.5 94.8028C92.2314 95.2007 80.7937 102.203 74.8246 112.972C61.9934 135.274 71.5643 168.05 83.8555 186.077C90.0051 194.905 97.1921 204.765 106.596 204.415C115.799 204.032 119.236 198.524 130.344 198.524C141.349 198.524 144.574 204.415 154.169 204.193C164.043 204.032 170.265 195.326 176.199 186.415C180.617 180.125 184.017 173.174 186.273 165.818C174.668 160.891 166.918 149.167 166.905 136.517Z" fill="white"/>
<path d="M148.782 82.6363C154.166 76.1476 156.818 67.8075 156.176 59.3872C147.95 60.2545 140.352 64.2012 134.895 70.4409C129.559 76.5374 126.782 84.7308 127.307 92.8293C135.536 92.9143 143.625 89.0746 148.782 82.6363Z" fill="white"/>
<path d="M495.133 124.954V138.521H486.661V147.418H495.133V177.65C495.133 187.973 499.784 192.102 511.487 192.102C513.544 192.102 515.502 191.856 517.216 191.561V182.762C515.747 182.91 514.817 183.008 513.201 183.008C507.962 183.008 505.66 180.55 505.66 174.946V147.418H517.216V138.521H505.66V124.954H495.133Z" fill="white"/>
<path d="M547.028 192.839C562.6 192.839 572.148 182.369 572.148 165.017C572.148 147.763 562.551 137.243 547.028 137.243C531.457 137.243 521.86 147.763 521.86 165.017C521.86 182.369 531.408 192.839 547.028 192.839ZM547.028 183.45C537.872 183.45 532.73 176.716 532.73 165.017C532.73 153.416 537.872 146.632 547.028 146.632C556.136 146.632 561.327 153.416 561.327 165.017C561.327 176.667 556.136 183.45 547.028 183.45Z" fill="white"/>
<path d="M580.317 191.807H590.845V160.199C590.845 152.678 596.476 147.615 604.458 147.615C606.318 147.615 609.452 147.959 610.333 148.254V137.833C609.207 137.538 607.2 137.39 605.633 137.39C598.68 137.39 592.755 141.225 591.237 146.484H590.453V138.275H580.317V191.807Z" fill="white"/>
<path d="M636.473 146.239C644.259 146.239 649.351 151.695 649.596 160.101H622.665C623.253 151.744 628.688 146.239 636.473 146.239ZM649.547 177.355C647.589 181.533 643.231 183.844 636.865 183.844C628.443 183.844 623.008 177.896 622.665 168.507V167.917H660.32V164.23C660.32 147.418 651.359 137.243 636.522 137.243C621.49 137.243 611.942 148.107 611.942 165.213C611.942 182.32 621.294 192.839 636.571 192.839C648.764 192.839 657.284 186.941 659.683 177.355H649.547Z" fill="white"/>
<path d="M426.094 172.039C426.906 185.184 437.817 193.59 454.058 193.59C471.415 193.59 482.276 184.776 482.276 170.714C482.276 159.658 476.084 153.544 461.062 150.028L452.992 148.041C443.451 145.8 439.594 142.793 439.594 137.546C439.594 130.922 445.582 126.591 454.565 126.591C463.092 126.591 468.979 130.82 470.045 137.597H481.109C480.449 125.216 469.588 116.503 454.718 116.503C438.731 116.503 428.073 125.216 428.073 138.31C428.073 149.111 434.112 155.531 447.359 158.639L456.798 160.932C466.492 163.224 470.755 166.587 470.755 172.192C470.755 178.713 464.056 183.451 454.921 183.451C445.126 183.451 438.325 179.019 437.361 172.039H426.094Z" fill="white"/>
<path d="M317.038 137.39C309.791 137.39 303.523 141.028 300.292 147.123H299.508V138.275H289.372V209.602H299.9V183.696H300.732C303.523 189.349 309.546 192.692 317.136 192.692C330.601 192.692 339.17 182.025 339.17 165.017C339.17 148.008 330.601 137.39 317.038 137.39ZM314.051 183.205C305.237 183.205 299.704 176.224 299.704 165.066C299.704 153.858 305.237 146.878 314.1 146.878C323.012 146.878 328.349 153.711 328.349 165.017C328.349 176.372 323.012 183.205 314.051 183.205Z" fill="white"/>
<path d="M376.008 137.39C368.762 137.39 362.494 141.028 359.262 147.123H358.479V138.275H348.343V209.602H358.87V183.696H359.703C362.494 189.349 368.517 192.692 376.106 192.692C389.572 192.692 398.141 182.025 398.141 165.017C398.141 148.008 389.572 137.39 376.008 137.39ZM373.022 183.205C364.208 183.205 358.675 176.224 358.675 165.066C358.675 153.858 364.208 146.878 373.071 146.878C381.982 146.878 387.32 153.711 387.32 165.017C387.32 176.372 381.982 183.205 373.022 183.205Z" fill="white"/>
<path d="M270.484 191.807H282.563L256.121 118.287H243.89L217.448 191.807H229.121L235.871 172.293H263.785L270.484 191.807ZM249.422 131.635H250.285L260.892 162.715H238.764L249.422 131.635Z" fill="white"/>
<path d="M217.156 66.4299V95.4907H227.608C236.234 95.4907 241.229 90.1538 241.229 80.8696C241.229 71.7265 236.194 66.4299 227.608 66.4299H217.156ZM221.65 70.5383H227.106C233.105 70.5383 236.655 74.3647 236.655 80.9301C236.655 87.5961 233.165 91.3823 227.106 91.3823H221.65V70.5383Z" fill="white"/>
<path d="M256.528 95.9136C262.907 95.9136 266.819 91.6239 266.819 84.5148C266.819 77.446 262.887 73.1362 256.528 73.1362C250.148 73.1362 246.216 77.446 246.216 84.5148C246.216 91.6239 250.128 95.9136 256.528 95.9136ZM256.528 92.067C252.776 92.067 250.67 89.3079 250.67 84.5148C250.67 79.762 252.776 76.9828 256.528 76.9828C260.259 76.9828 262.385 79.762 262.385 84.5148C262.385 89.2878 260.259 92.067 256.528 92.067Z" fill="white"/>
<path d="M300.132 73.5591H295.819L291.927 90.2948H291.586L287.092 73.5591H282.96L278.466 90.2948H278.145L274.233 73.5591H269.86L275.878 95.4907H280.312L284.805 79.3391H285.146L289.66 95.4907H294.134L300.132 73.5591Z" fill="white"/>
<path d="M305.099 95.4907H309.412V82.662C309.412 79.2384 311.438 77.1036 314.628 77.1036C317.818 77.1036 319.342 78.8557 319.342 82.3801V95.4907H323.655V81.2926C323.655 76.0765 320.967 73.1362 316.092 73.1362C312.802 73.1362 310.636 74.6064 309.572 77.0432H309.252V73.5591H305.099V95.4907Z" fill="white"/>
<path d="M330.448 95.4907H334.761V65H330.448V95.4907Z" fill="white"/>
<path d="M350.982 95.9136C357.361 95.9136 361.273 91.6239 361.273 84.5148C361.273 77.446 357.341 73.1362 350.982 73.1362C344.603 73.1362 340.671 77.446 340.671 84.5148C340.671 91.6239 344.583 95.9136 350.982 95.9136ZM350.982 92.067C347.231 92.067 345.124 89.3079 345.124 84.5148C345.124 79.762 347.231 76.9828 350.982 76.9828C354.713 76.9828 356.84 79.762 356.84 84.5148C356.84 89.2878 354.713 92.067 350.982 92.067Z" fill="white"/>
<path d="M374.124 92.208C371.777 92.208 370.072 91.06 370.072 89.0864C370.072 87.1531 371.436 86.126 374.445 85.9246L379.781 85.5822V87.4149C379.781 90.1336 377.374 92.208 374.124 92.208ZM373.021 95.8532C375.89 95.8532 378.277 94.6045 379.581 92.4094H379.922V95.4907H384.074V80.5071C384.074 75.8751 380.985 73.1362 375.508 73.1362C370.553 73.1362 367.023 75.5529 366.581 79.3189H370.754C371.235 77.7682 372.901 76.8821 375.308 76.8821C378.257 76.8821 379.781 78.1911 379.781 80.5071V82.4002L373.863 82.7426C368.668 83.0648 365.739 85.3405 365.739 89.2878C365.739 93.2955 368.808 95.8532 373.021 95.8532Z" fill="white"/>
<path d="M398.711 95.8532C401.72 95.8532 404.268 94.4233 405.572 92.0267H405.913V95.4907H410.045V65H405.732V77.0432H405.411C404.228 74.6265 401.7 73.1966 398.711 73.1966C393.194 73.1966 389.643 77.587 389.643 84.5148C389.643 91.4628 393.154 95.8532 398.711 95.8532ZM399.935 77.0835C403.545 77.0835 405.812 79.9634 405.812 84.535C405.812 89.1267 403.566 91.9663 399.935 91.9663C396.283 91.9663 394.097 89.167 394.097 84.5148C394.097 79.903 396.304 77.0835 399.935 77.0835Z" fill="white"/>
<path d="M438.014 95.9136C444.393 95.9136 448.305 91.6239 448.305 84.5148C448.305 77.446 444.373 73.1362 438.014 73.1362C431.635 73.1362 427.703 77.446 427.703 84.5148C427.703 91.6239 431.615 95.9136 438.014 95.9136ZM438.014 92.067C434.263 92.067 432.156 89.3079 432.156 84.5148C432.156 79.762 434.263 76.9828 438.014 76.9828C441.745 76.9828 443.872 79.762 443.872 84.5148C443.872 89.2878 441.745 92.067 438.014 92.067Z" fill="white"/>
<path d="M454.015 95.4907H458.328V82.662C458.328 79.2384 460.354 77.1036 463.543 77.1036C466.733 77.1036 468.258 78.8557 468.258 82.3801V95.4907H472.571V81.2926C472.571 76.0765 469.883 73.1362 465.008 73.1362C461.718 73.1362 459.551 74.6064 458.488 77.0432H458.167V73.5591H454.015V95.4907Z" fill="white"/>
<path d="M492.435 68.1014V73.6598H488.965V77.305H492.435V89.6906C492.435 93.9198 494.341 95.6115 499.135 95.6115C499.978 95.6115 500.78 95.5108 501.482 95.39V91.7851C500.881 91.8455 500.499 91.8857 499.837 91.8857C497.691 91.8857 496.748 90.8788 496.748 88.5829V77.305H501.482V73.6598H496.748V68.1014H492.435Z" fill="white"/>
<path d="M507.272 95.4907H511.585V82.6822C511.585 79.3592 513.551 77.1238 517.082 77.1238C520.131 77.1238 521.756 78.896 521.756 82.4002V95.4907H526.069V81.3328C526.069 76.1168 523.2 73.1564 518.546 73.1564C515.256 73.1564 512.949 74.6265 511.886 77.0835H511.545V65H507.272V95.4907Z" fill="white"/>
<path d="M541.628 76.8217C544.818 76.8217 546.904 79.0571 547.005 82.5009H535.971C536.212 79.0773 538.439 76.8217 541.628 76.8217ZM546.984 89.5697C546.182 91.2816 544.397 92.2281 541.789 92.2281C538.338 92.2281 536.111 89.7913 535.971 85.9447V85.703H551.398V84.1926C551.398 77.305 547.727 73.1362 541.648 73.1362C535.49 73.1362 531.578 77.587 531.578 84.5954C531.578 91.6038 535.409 95.9136 541.668 95.9136C546.663 95.9136 550.154 93.4969 551.137 89.5697H546.984Z" fill="white"/>
</svg>
