<svg width="711" height="265" viewBox="0 0 711 265" fill="none" xmlns="http://www.w3.org/2000/svg">
<rect width="711" height="265" rx="40" fill="#090909"/>
<g filter="url(#filter0_ii_2413_56)">
<path d="M70.9629 67.1047C69.4266 68.7371 68.5186 71.2705 68.5186 74.5512V191.766C68.5186 195.052 69.4266 197.58 70.9629 199.212L71.3536 199.594L136.76 133.932V133.159V132.385L71.3536 66.7178L70.9629 67.1047Z" fill="url(#paint0_linear_2413_56)"/>
<path d="M158.557 155.826L136.759 133.931V133.157V132.384L158.563 110.495L159.054 110.776L184.886 125.51C192.261 129.718 192.261 136.602 184.886 140.816L159.054 155.55L158.557 155.826Z" fill="url(#paint1_linear_2413_56)"/>
<g filter="url(#filter1_i_2413_56)">
<path d="M159.055 155.544L136.755 133.157L70.9629 199.211C73.3914 201.798 77.409 202.116 81.9335 199.54L159.055 155.544Z" fill="url(#paint2_linear_2413_56)"/>
</g>
<path d="M159.055 110.771L81.9335 66.7812C77.409 64.2001 73.3914 64.5234 70.9629 67.1098L136.76 133.164L159.055 110.771Z" fill="url(#paint3_linear_2413_56)"/>
</g>
<path d="M356.306 139.571C344.579 139.571 335.02 148.487 335.02 160.767C335.02 172.972 344.579 181.962 356.306 181.962C368.039 181.962 377.598 172.972 377.598 160.767C377.593 148.487 368.034 139.571 356.306 139.571ZM356.306 173.62C349.879 173.62 344.34 168.322 344.34 160.772C344.34 153.142 349.884 147.924 356.306 147.924C362.734 147.924 368.273 153.142 368.273 160.772C368.273 168.317 362.734 173.62 356.306 173.62ZM309.865 139.571C298.137 139.571 288.579 148.487 288.579 160.767C288.579 172.972 298.137 181.962 309.865 181.962C321.597 181.962 331.156 172.972 331.156 160.767C331.156 148.487 321.597 139.571 309.865 139.571ZM309.865 173.62C303.438 173.62 297.898 168.322 297.898 160.772C297.898 153.142 303.443 147.924 309.865 147.924C316.292 147.924 321.832 153.142 321.832 160.772C321.837 168.317 316.292 173.62 309.865 173.62ZM254.628 146.08V155.07H276.158C275.515 160.129 273.829 163.822 271.257 166.388C268.125 169.518 263.224 172.972 254.628 172.972C241.374 172.972 231.013 162.292 231.013 149.045C231.013 135.799 241.374 125.119 254.628 125.119C261.778 125.119 266.998 127.929 270.853 131.542L277.2 125.198C271.815 120.06 264.67 116.128 254.628 116.128C236.473 116.128 221.21 130.9 221.21 149.045C221.21 167.191 236.473 181.962 254.628 181.962C264.425 181.962 271.82 178.748 277.599 172.728C283.543 166.787 285.393 158.434 285.393 151.692C285.393 149.608 285.233 147.68 284.909 146.075L254.628 146.08ZM480.543 153.062C478.778 148.328 473.393 139.571 462.388 139.571C451.463 139.571 442.383 148.163 442.383 160.767C442.383 172.648 451.384 181.962 463.43 181.962C473.148 181.962 478.773 176.022 481.106 172.568L473.876 167.749C471.468 171.282 468.172 173.61 463.43 173.61C458.693 173.61 455.318 171.442 453.149 167.186L481.505 155.464L480.543 153.062ZM451.623 160.129C451.384 151.936 457.97 147.764 462.712 147.764C466.407 147.764 469.538 149.613 470.585 152.26L451.623 160.129ZM428.572 180.682H437.886V118.381H428.572V180.682ZM413.304 144.311H412.985C410.895 141.819 406.877 139.571 401.821 139.571C391.215 139.571 381.497 148.886 381.497 160.852C381.497 172.733 391.215 181.967 401.821 181.967C406.882 181.967 410.895 179.72 412.985 177.153H413.304V180.203C413.304 188.312 408.966 192.648 401.98 192.648C396.276 192.648 392.741 188.556 391.295 185.102L383.182 188.476C385.511 194.093 391.694 201 401.98 201C412.905 201 422.144 194.576 422.144 178.917V140.862H413.309L413.304 144.311ZM402.623 173.62C396.196 173.62 390.816 168.237 390.816 160.852C390.816 153.381 396.196 147.924 402.623 147.924C408.966 147.924 413.947 153.381 413.947 160.852C413.947 168.237 408.966 173.62 402.623 173.62ZM524.192 118.381H501.899V180.682H511.198V157.079H524.187C534.499 157.079 544.641 149.618 544.641 137.732C544.641 125.846 534.504 118.381 524.192 118.381ZM524.432 148.407H511.198V127.052H524.432C531.387 127.052 535.336 132.808 535.336 137.732C535.336 142.556 531.387 148.407 524.432 148.407ZM581.933 139.462C575.196 139.462 568.221 142.427 565.333 149L573.591 152.444C575.356 149 578.647 147.874 582.092 147.874C586.904 147.874 591.795 150.76 591.875 155.888V156.531C590.19 155.569 586.58 154.129 582.172 154.129C573.272 154.129 564.207 159.018 564.207 168.153C564.207 176.49 571.506 181.858 579.684 181.858C585.937 181.858 589.387 179.052 591.551 175.763H591.87V180.572H600.855V156.685C600.86 145.631 592.593 139.462 581.933 139.462ZM580.806 173.605C577.764 173.605 573.511 172.08 573.511 168.312C573.511 163.503 578.806 161.659 583.379 161.659C587.462 161.659 589.392 162.541 591.875 163.742C591.152 169.518 586.181 173.605 580.806 173.605ZM633.575 140.822L622.909 167.834H622.59L611.521 140.822H601.498L618.098 178.574L608.634 199.575H618.337L643.921 140.822H633.575ZM549.776 180.682H559.076V118.381H549.776V180.682Z" fill="white"/>
<path d="M253.466 81.5297C253.466 85.6303 252.231 88.8942 249.755 91.3311C246.945 94.228 243.279 95.6765 238.775 95.6765C234.461 95.6765 230.789 94.2085 227.775 91.2724C224.757 88.3315 223.247 84.6908 223.247 80.3455C223.247 75.9952 224.757 72.3545 227.775 69.4185C230.789 66.4776 234.461 65.0096 238.775 65.0096C240.917 65.0096 242.965 65.4206 244.908 66.2378C246.856 67.0599 248.415 68.1511 249.581 69.5164L246.955 72.1001C244.977 69.7757 242.252 68.616 238.77 68.616C235.622 68.616 232.902 69.7023 230.605 71.875C228.309 74.0477 227.163 76.8712 227.163 80.3406C227.163 83.81 228.309 86.6335 230.605 88.8061C232.902 90.9788 235.622 92.0652 238.77 92.0652C242.108 92.0652 244.893 90.9739 247.12 88.7866C248.564 87.3626 249.401 85.3808 249.625 82.8411H238.77V79.313H253.252C253.402 80.0812 253.466 80.8201 253.466 81.5297Z" fill="white"/>
<path d="M276.433 69.2671H262.823V78.5743H275.098V82.1025H262.823V91.4097H276.433V95.021H258.982V65.6607H276.433V69.2671Z" fill="white"/>
<path d="M292.628 95.021H288.787V69.2671H280.437V65.6607H300.977V69.2671H292.628V95.021Z" fill="white"/>
<path d="M315.838 95.021V65.6607H319.678V95.021H315.838Z" fill="white"/>
<path d="M336.712 95.021H332.871V69.2671H324.522V65.6607H345.061V69.2671H336.712V95.021Z" fill="white"/>
<path d="M383.943 91.2286C381.004 94.194 377.352 95.6767 372.983 95.6767C368.614 95.6767 364.962 94.194 362.028 91.2286C359.089 88.2632 357.624 84.6323 357.624 80.3408C357.624 76.0493 359.089 72.4184 362.028 69.453C364.962 66.4876 368.614 65 372.983 65C377.327 65 380.974 66.4925 383.923 69.4726C386.872 72.4526 388.347 76.0738 388.347 80.3408C388.347 84.6323 386.877 88.2632 383.943 91.2286ZM364.863 88.7672C367.075 90.9693 369.78 92.0654 372.983 92.0654C376.186 92.0654 378.896 90.9644 381.103 88.7672C383.315 86.5652 384.426 83.7564 384.426 80.3408C384.426 76.9252 383.315 74.1164 381.103 71.9144C378.896 69.7123 376.186 68.6162 372.983 68.6162C369.78 68.6162 367.075 69.7172 364.863 71.9144C362.656 74.1164 361.545 76.9252 361.545 80.3408C361.545 83.7564 362.656 86.5652 364.863 88.7672Z" fill="white"/>
<path d="M393.737 95.021V65.6607H398.41L412.937 88.4981H413.101L412.937 82.8414V65.6607H416.778V95.021H412.767L397.568 71.0728H397.404L397.568 76.7295V95.021H393.737Z" fill="white"/>
<path d="M253.466 81.5297C253.466 85.6303 252.231 88.8942 249.755 91.3311C246.945 94.228 243.279 95.6765 238.775 95.6765C234.461 95.6765 230.789 94.2085 227.775 91.2724C224.757 88.3315 223.247 84.6908 223.247 80.3455C223.247 75.9952 224.757 72.3545 227.775 69.4185C230.789 66.4776 234.461 65.0096 238.775 65.0096C240.917 65.0096 242.965 65.4206 244.908 66.2378C246.856 67.0599 248.415 68.1511 249.581 69.5164L246.955 72.1001C244.977 69.7757 242.252 68.616 238.77 68.616C235.622 68.616 232.902 69.7023 230.605 71.875C228.309 74.0477 227.163 76.8712 227.163 80.3406C227.163 83.81 228.309 86.6335 230.605 88.8061C232.902 90.9788 235.622 92.0652 238.77 92.0652C242.108 92.0652 244.893 90.9739 247.12 88.7866C248.564 87.3626 249.401 85.3808 249.625 82.8411H238.77V79.313H253.252C253.402 80.0812 253.466 80.8201 253.466 81.5297Z" stroke="white" stroke-width="0.204511" stroke-miterlimit="10"/>
<path d="M276.433 69.2671H262.823V78.5743H275.098V82.1025H262.823V91.4097H276.433V95.021H258.982V65.6607H276.433V69.2671Z" stroke="white" stroke-width="0.204511" stroke-miterlimit="10"/>
<path d="M292.628 95.021H288.787V69.2671H280.437V65.6607H300.977V69.2671H292.628V95.021Z" stroke="white" stroke-width="0.204511" stroke-miterlimit="10"/>
<path d="M315.838 95.021V65.6607H319.678V95.021H315.838Z" stroke="white" stroke-width="0.204511" stroke-miterlimit="10"/>
<path d="M336.712 95.021H332.871V69.2671H324.522V65.6607H345.061V69.2671H336.712V95.021Z" stroke="white" stroke-width="0.204511" stroke-miterlimit="10"/>
<path d="M383.943 91.2286C381.004 94.194 377.352 95.6767 372.983 95.6767C368.614 95.6767 364.962 94.194 362.028 91.2286C359.089 88.2632 357.624 84.6323 357.624 80.3408C357.624 76.0493 359.089 72.4184 362.028 69.453C364.962 66.4876 368.614 65 372.983 65C377.327 65 380.974 66.4925 383.923 69.4726C386.872 72.4526 388.347 76.0738 388.347 80.3408C388.347 84.6323 386.877 88.2632 383.943 91.2286ZM364.863 88.7672C367.075 90.9693 369.78 92.0654 372.983 92.0654C376.186 92.0654 378.896 90.9644 381.103 88.7672C383.315 86.5652 384.426 83.7564 384.426 80.3408C384.426 76.9252 383.315 74.1164 381.103 71.9144C378.896 69.7123 376.186 68.6162 372.983 68.6162C369.78 68.6162 367.075 69.7172 364.863 71.9144C362.656 74.1164 361.545 76.9252 361.545 80.3408C361.545 83.7564 362.656 86.5652 364.863 88.7672Z" stroke="white" stroke-width="0.204511" stroke-miterlimit="10"/>
<path d="M393.737 95.021V65.6607H398.41L412.937 88.4981H413.101L412.937 82.8414V65.6607H416.778V95.021H412.767L397.568 71.0728H397.404L397.568 76.7295V95.021H393.737Z" stroke="white" stroke-width="0.204511" stroke-miterlimit="10"/>
<defs>
<filter id="filter0_ii_2413_56" x="68.5186" y="65" width="121.898" height="136.319" filterUnits="userSpaceOnUse" color-interpolation-filters="sRGB">
<feFlood flood-opacity="0" result="BackgroundImageFix"/>
<feBlend mode="normal" in="SourceGraphic" in2="BackgroundImageFix" result="shape"/>
<feColorMatrix in="SourceAlpha" type="matrix" values="0 0 0 0 0 0 0 0 0 0 0 0 0 0 0 0 0 0 127 0" result="hardAlpha"/>
<feOffset dy="-0.795"/>
<feComposite in2="hardAlpha" operator="arithmetic" k2="-1" k3="1"/>
<feColorMatrix type="matrix" values="0 0 0 0 0 0 0 0 0 0 0 0 0 0 0 0 0 0 0.12 0"/>
<feBlend mode="normal" in2="shape" result="effect1_innerShadow_2413_56"/>
<feColorMatrix in="SourceAlpha" type="matrix" values="0 0 0 0 0 0 0 0 0 0 0 0 0 0 0 0 0 0 127 0" result="hardAlpha"/>
<feOffset dy="0.795"/>
<feComposite in2="hardAlpha" operator="arithmetic" k2="-1" k3="1"/>
<feColorMatrix type="matrix" values="0 0 0 0 1 0 0 0 0 1 0 0 0 0 1 0 0 0 0.25 0"/>
<feBlend mode="normal" in2="effect1_innerShadow_2413_56" result="effect2_innerShadow_2413_56"/>
</filter>
<filter id="filter1_i_2413_56" x="70.9629" y="133.157" width="88.0918" height="68.1616" filterUnits="userSpaceOnUse" color-interpolation-filters="sRGB">
<feFlood flood-opacity="0" result="BackgroundImageFix"/>
<feBlend mode="normal" in="SourceGraphic" in2="BackgroundImageFix" result="shape"/>
<feColorMatrix in="SourceAlpha" type="matrix" values="0 0 0 0 0 0 0 0 0 0 0 0 0 0 0 0 0 0 127 0" result="hardAlpha"/>
<feOffset dy="-0.795"/>
<feComposite in2="hardAlpha" operator="arithmetic" k2="-1" k3="1"/>
<feColorMatrix type="matrix" values="0 0 0 0 0 0 0 0 0 0 0 0 0 0 0 0 0 0 0.08 0"/>
<feBlend mode="normal" in2="shape" result="effect1_innerShadow_2413_56"/>
</filter>
<linearGradient id="paint0_linear_2413_56" x1="130.962" y1="73.311" x2="42.0182" y2="161.909" gradientUnits="userSpaceOnUse">
<stop stop-color="#00A0FF"/>
<stop offset="0.0066" stop-color="#00A1FF"/>
<stop offset="0.2601" stop-color="#00BEFF"/>
<stop offset="0.5122" stop-color="#00D2FF"/>
<stop offset="0.7604" stop-color="#00DFFF"/>
<stop offset="1" stop-color="#00E3FF"/>
</linearGradient>
<linearGradient id="paint1_linear_2413_56" x1="194.486" y1="133.157" x2="66.7466" y2="133.157" gradientUnits="userSpaceOnUse">
<stop stop-color="#FFE000"/>
<stop offset="0.4087" stop-color="#FFBD00"/>
<stop offset="0.7754" stop-color="#FFA500"/>
<stop offset="1" stop-color="#FF9C00"/>
</linearGradient>
<linearGradient id="paint2_linear_2413_56" x1="146.944" y1="145.315" x2="26.3253" y2="265.465" gradientUnits="userSpaceOnUse">
<stop stop-color="#FF3A44"/>
<stop offset="1" stop-color="#C31162"/>
</linearGradient>
<linearGradient id="paint3_linear_2413_56" x1="54.393" y1="28.0901" x2="108.253" y2="81.7405" gradientUnits="userSpaceOnUse">
<stop stop-color="#32A071"/>
<stop offset="0.0685" stop-color="#2DA771"/>
<stop offset="0.4762" stop-color="#15CF74"/>
<stop offset="0.8009" stop-color="#06E775"/>
<stop offset="1" stop-color="#00F076"/>
</linearGradient>
</defs>
</svg>
