<svg width="714" height="265" viewBox="0 0 714 265" fill="none" xmlns="http://www.w3.org/2000/svg">
<rect x="0.887207" width="712.22" height="265" rx="40" fill="#090909"/>
<g filter="url(#filter0_ii_1902_3390)">
<path d="M71.9634 67.1049C70.4271 68.7373 69.519 71.2707 69.519 74.5514V191.766C69.519 195.052 70.4271 197.58 71.9634 199.213L72.3541 199.594L137.76 133.933V133.159V132.385L72.3541 66.718L71.9634 67.1049Z" fill="url(#paint0_linear_1902_3390)"/>
<path d="M159.558 155.826L137.759 133.931V133.157V132.384L159.563 110.495L160.054 110.776L185.886 125.51C193.262 129.718 193.262 136.602 185.886 140.816L160.054 155.55L159.558 155.826Z" fill="url(#paint1_linear_1902_3390)"/>
<g filter="url(#filter1_i_1902_3390)">
<path d="M160.055 155.544L137.755 133.157L71.9629 199.211C74.3914 201.797 78.409 202.115 82.9335 199.54L160.055 155.544Z" fill="url(#paint2_linear_1902_3390)"/>
</g>
<path d="M160.055 110.771L82.9335 66.781C78.409 64.1999 74.3914 64.5232 71.9629 67.1096L137.76 133.163L160.055 110.771Z" fill="url(#paint3_linear_1902_3390)"/>
</g>
<path d="M357.307 114.443C345.579 114.443 336.021 123.359 336.021 135.639C336.021 147.844 345.579 156.835 357.307 156.835C369.039 156.835 378.598 147.844 378.598 135.639C378.593 123.359 369.035 114.443 357.307 114.443ZM357.307 148.492C350.88 148.492 345.34 143.194 345.34 135.644C345.34 128.014 350.885 122.796 357.307 122.796C363.734 122.796 369.274 128.014 369.274 135.644C369.274 143.189 363.734 148.492 357.307 148.492ZM310.865 114.443C299.138 114.443 289.579 123.359 289.579 135.639C289.579 147.844 299.138 156.835 310.865 156.835C322.598 156.835 332.156 147.844 332.156 135.639C332.156 123.359 322.598 114.443 310.865 114.443ZM310.865 148.492C304.438 148.492 298.898 143.194 298.898 135.644C298.898 128.014 304.443 122.796 310.865 122.796C317.293 122.796 322.832 128.014 322.832 135.644C322.837 143.189 317.293 148.492 310.865 148.492ZM255.628 120.952V129.943H277.159C276.515 135.001 274.83 138.694 272.257 141.261C269.126 144.39 264.224 147.844 255.628 147.844C242.375 147.844 232.013 137.164 232.013 123.917C232.013 110.671 242.375 99.9906 255.628 99.9906C262.778 99.9906 267.999 102.801 271.853 106.415L278.201 100.07C272.816 94.9321 265.67 91 255.628 91C237.473 91 222.21 105.772 222.21 123.917C222.21 142.063 237.473 156.835 255.628 156.835C265.426 156.835 272.821 153.62 278.6 147.6C284.543 141.659 286.393 133.307 286.393 126.564C286.393 124.48 286.233 122.552 285.909 120.947L255.628 120.952ZM481.543 127.934C479.778 123.2 474.393 114.443 463.389 114.443C452.464 114.443 443.384 123.035 443.384 135.639C443.384 147.52 452.384 156.835 464.431 156.835C474.149 156.835 479.773 150.894 482.107 147.44L474.877 142.621C472.468 146.154 469.173 148.482 464.431 148.482C459.694 148.482 456.318 146.314 454.149 142.058L482.506 130.336L481.543 127.934ZM452.623 135.001C452.384 126.808 458.971 122.636 463.713 122.636C467.408 122.636 470.539 124.485 471.586 127.132L452.623 135.001ZM429.572 155.554H438.886V93.2526H429.572V155.554ZM414.304 119.183H413.985C411.896 116.691 407.877 114.443 402.821 114.443C392.215 114.443 382.497 123.758 382.497 135.724C382.497 147.605 392.215 156.84 402.821 156.84C407.882 156.84 411.896 154.592 413.985 152.025H414.304V155.075C414.304 163.184 409.966 167.52 402.981 167.52C397.276 167.52 393.741 163.428 392.295 159.974L384.183 163.348C386.511 168.965 392.694 175.872 402.981 175.872C413.905 175.872 423.145 169.448 423.145 153.79V115.734H414.309L414.304 119.183ZM403.624 148.492C397.197 148.492 391.816 143.109 391.816 135.724C391.816 128.253 397.197 122.796 403.624 122.796C409.966 122.796 414.948 128.253 414.948 135.724C414.948 143.109 409.966 148.492 403.624 148.492ZM525.193 93.2526H502.899V155.554H512.199V131.951H525.188C535.499 131.951 545.641 124.49 545.641 112.604C545.641 100.718 535.504 93.2526 525.193 93.2526ZM525.432 123.279H512.199V101.924H525.432C532.388 101.924 536.337 107.68 536.337 112.604C536.337 117.429 532.388 123.279 525.432 123.279ZM582.933 114.334C576.197 114.334 569.221 117.299 566.334 123.872L574.591 127.316C576.356 123.872 579.647 122.746 583.093 122.746C587.904 122.746 592.796 125.632 592.876 130.76V131.403C591.19 130.441 587.58 129.001 583.172 129.001C574.272 129.001 565.207 133.89 565.207 143.025C565.207 151.362 572.507 156.73 580.684 156.73C586.937 156.73 590.387 153.924 592.552 150.635H592.871V155.444H601.856V131.557C601.861 120.503 593.594 114.334 582.933 114.334ZM581.806 148.477C578.765 148.477 574.511 146.952 574.511 143.184C574.511 138.375 579.807 136.531 584.379 136.531C588.463 136.531 590.392 137.413 592.876 138.614C592.153 144.39 587.181 148.477 581.806 148.477ZM634.575 115.694L623.91 142.706H623.591L612.521 115.694H602.499L619.098 153.446L609.634 174.447H619.337L644.922 115.694H634.575ZM550.777 155.554H560.076V93.2526H550.777V155.554Z" fill="white"/>
<defs>
<filter id="filter0_ii_1902_3390" x="69.519" y="64.9998" width="121.898" height="136.319" filterUnits="userSpaceOnUse" color-interpolation-filters="sRGB">
<feFlood flood-opacity="0" result="BackgroundImageFix"/>
<feBlend mode="normal" in="SourceGraphic" in2="BackgroundImageFix" result="shape"/>
<feColorMatrix in="SourceAlpha" type="matrix" values="0 0 0 0 0 0 0 0 0 0 0 0 0 0 0 0 0 0 127 0" result="hardAlpha"/>
<feOffset dy="-0.795"/>
<feComposite in2="hardAlpha" operator="arithmetic" k2="-1" k3="1"/>
<feColorMatrix type="matrix" values="0 0 0 0 0 0 0 0 0 0 0 0 0 0 0 0 0 0 0.12 0"/>
<feBlend mode="normal" in2="shape" result="effect1_innerShadow_1902_3390"/>
<feColorMatrix in="SourceAlpha" type="matrix" values="0 0 0 0 0 0 0 0 0 0 0 0 0 0 0 0 0 0 127 0" result="hardAlpha"/>
<feOffset dy="0.795"/>
<feComposite in2="hardAlpha" operator="arithmetic" k2="-1" k3="1"/>
<feColorMatrix type="matrix" values="0 0 0 0 1 0 0 0 0 1 0 0 0 0 1 0 0 0 0.25 0"/>
<feBlend mode="normal" in2="effect1_innerShadow_1902_3390" result="effect2_innerShadow_1902_3390"/>
</filter>
<filter id="filter1_i_1902_3390" x="71.9629" y="133.157" width="88.0918" height="68.1616" filterUnits="userSpaceOnUse" color-interpolation-filters="sRGB">
<feFlood flood-opacity="0" result="BackgroundImageFix"/>
<feBlend mode="normal" in="SourceGraphic" in2="BackgroundImageFix" result="shape"/>
<feColorMatrix in="SourceAlpha" type="matrix" values="0 0 0 0 0 0 0 0 0 0 0 0 0 0 0 0 0 0 127 0" result="hardAlpha"/>
<feOffset dy="-0.795"/>
<feComposite in2="hardAlpha" operator="arithmetic" k2="-1" k3="1"/>
<feColorMatrix type="matrix" values="0 0 0 0 0 0 0 0 0 0 0 0 0 0 0 0 0 0 0.08 0"/>
<feBlend mode="normal" in2="shape" result="effect1_innerShadow_1902_3390"/>
</filter>
<linearGradient id="paint0_linear_1902_3390" x1="131.963" y1="73.3112" x2="43.0187" y2="161.909" gradientUnits="userSpaceOnUse">
<stop stop-color="#00A0FF"/>
<stop offset="0.0066" stop-color="#00A1FF"/>
<stop offset="0.2601" stop-color="#00BEFF"/>
<stop offset="0.5122" stop-color="#00D2FF"/>
<stop offset="0.7604" stop-color="#00DFFF"/>
<stop offset="1" stop-color="#00E3FF"/>
</linearGradient>
<linearGradient id="paint1_linear_1902_3390" x1="195.487" y1="133.157" x2="67.7471" y2="133.157" gradientUnits="userSpaceOnUse">
<stop stop-color="#FFE000"/>
<stop offset="0.4087" stop-color="#FFBD00"/>
<stop offset="0.7754" stop-color="#FFA500"/>
<stop offset="1" stop-color="#FF9C00"/>
</linearGradient>
<linearGradient id="paint2_linear_1902_3390" x1="147.944" y1="145.315" x2="27.3253" y2="265.465" gradientUnits="userSpaceOnUse">
<stop stop-color="#FF3A44"/>
<stop offset="1" stop-color="#C31162"/>
</linearGradient>
<linearGradient id="paint3_linear_1902_3390" x1="55.393" y1="28.0899" x2="109.253" y2="81.7403" gradientUnits="userSpaceOnUse">
<stop stop-color="#32A071"/>
<stop offset="0.0685" stop-color="#2DA771"/>
<stop offset="0.4762" stop-color="#15CF74"/>
<stop offset="0.8009" stop-color="#06E775"/>
<stop offset="1" stop-color="#00F076"/>
</linearGradient>
</defs>
</svg>
