<svg width="24" height="24" viewBox="0 0 24 24" fill="none" xmlns="http://www.w3.org/2000/svg">
<g clip-path="url(#clip0_534_3095)">
<path d="M6.59724 18.0896L2.25647 21.4999V3.47426C2.25647 3.21584 2.35913 2.96801 2.54185 2.78528C2.72458 2.60256 2.97241 2.4999 3.23083 2.4999H20.7693C21.0277 2.4999 21.2755 2.60256 21.4583 2.78528C21.641 2.96801 21.7437 3.21584 21.7437 3.47426V17.1153C21.7437 17.3737 21.641 17.6215 21.4583 17.8043C21.2755 17.987 21.0277 18.0896 20.7693 18.0896H6.59724ZM11.0257 9.32041H8.10262V11.2691H11.0257V14.1922H12.9744V11.2691H15.8975V9.32041H12.9744V6.39734H11.0257V9.32041Z" fill="#1B1C22"/>
</g>
<defs>
<clipPath id="clip0_534_3095">
<rect width="24" height="24" fill="white"/>
</clipPath>
</defs>
</svg>
