<svg width="24" height="24" viewBox="0 0 24 24" fill="none" xmlns="http://www.w3.org/2000/svg">
<g clip-path="url(#clip0_534_3107)">
<path d="M5 4L5 20L12 20L12 22L4 22C3.73478 22 3.48043 21.8946 3.29289 21.7071C3.10536 21.5196 3 21.2652 3 21L3 3C3 2.73478 3.10536 2.48043 3.29289 2.29289C3.48043 2.10536 3.73478 2 4 2L12 2L12 4L5 4ZM15 14L9 14L9 10L15 10L15 5L22 12L15 19L15 14Z" fill="#1B1C22"/>
</g>
<defs>
<clipPath id="clip0_534_3107">
<rect width="24" height="24" fill="white" transform="translate(24) rotate(90)"/>
</clipPath>
</defs>
</svg>
