<svg width="24" height="24" viewBox="0 0 24 24" fill="none" xmlns="http://www.w3.org/2000/svg">
<g clip-path="url(#clip0_534_3105)">
<path d="M19 20L19 4L12 4L12 2L20 2C20.2652 2 20.5196 2.10536 20.7071 2.29289C20.8946 2.48043 21 2.73478 21 3L21 21C21 21.2652 20.8946 21.5196 20.7071 21.7071C20.5196 21.8946 20.2652 22 20 22L12 22L12 20L19 20ZM9 10L15 10L15 14L9 14L9 19L2 12L9 5L9 10Z" fill="#1B1C22"/>
</g>
<defs>
<clipPath id="clip0_534_3105">
<rect width="24" height="24" fill="white" transform="translate(0 24) rotate(-90)"/>
</clipPath>
</defs>
</svg>
