<svg width="24" height="24" viewBox="0 0 24 24" fill="none" xmlns="http://www.w3.org/2000/svg">
<g clip-path="url(#clip0_534_3115)">
<path d="M11.9999 4C11.0222 4 10.2222 4.8 10.2222 5.77778C10.2222 6.75556 11.0222 7.55556 11.9999 7.55556C12.9777 7.55556 13.7777 6.75556 13.7777 5.77778C13.7777 4.8 12.9777 4 11.9999 4ZM11.9999 16.4444C11.0222 16.4444 10.2222 17.2444 10.2222 18.2222C10.2222 19.2 11.0222 20 11.9999 20C12.9777 20 13.7777 19.2 13.7777 18.2222C13.7777 17.2444 12.9777 16.4444 11.9999 16.4444ZM11.9999 10.2222C11.0222 10.2222 10.2222 11.0222 10.2222 12C10.2222 12.9778 11.0222 13.7778 11.9999 13.7778C12.9777 13.7778 13.7777 12.9778 13.7777 12C13.7777 11.0222 12.9777 10.2222 11.9999 10.2222Z" fill="#1B1C22"/>
</g>
<defs>
<clipPath id="clip0_534_3115">
<rect width="24" height="24" fill="white"/>
</clipPath>
</defs>
</svg>
