<svg width="24" height="24" viewBox="0 0 24 24" fill="none" xmlns="http://www.w3.org/2000/svg">
<g clip-path="url(#clip0_534_2517)">
<path d="M12 4C11.2666 4 10.6666 4.6 10.6666 5.33333C10.6666 6.06667 11.2666 6.66667 12 6.66667C12.7333 6.66667 13.3333 6.06667 13.3333 5.33333C13.3333 4.6 12.7333 4 12 4ZM12 17.3333C11.2666 17.3333 10.6666 17.9333 10.6666 18.6667C10.6666 19.4 11.2666 20 12 20C12.7333 20 13.3333 19.4 13.3333 18.6667C13.3333 17.9333 12.7333 17.3333 12 17.3333ZM12 10.6667C11.2666 10.6667 10.6666 11.2667 10.6666 12C10.6666 12.7333 11.2666 13.3333 12 13.3333C12.7333 13.3333 13.3333 12.7333 13.3333 12C13.3333 11.2667 12.7333 10.6667 12 10.6667Z" fill="#1B1C22"/>
</g>
<defs>
<clipPath id="clip0_534_2517">
<rect width="24" height="24" fill="white"/>
</clipPath>
</defs>
</svg>
