<svg width="24" height="24" viewBox="0 0 24 24" fill="none" xmlns="http://www.w3.org/2000/svg">
<g clip-path="url(#clip0_534_2485)">
<path d="M21.7674 19.0814H2.23254V17.1279H3.20929V10.321C3.20929 5.44898 7.14557 1.5 12 1.5C16.8544 1.5 20.7907 5.44898 20.7907 10.321V17.1279H21.7674V19.0814ZM5.16278 17.1279H18.8372V10.321C18.8372 6.52828 15.7761 3.45349 12 3.45349C8.22389 3.45349 5.16278 6.52828 5.16278 10.321V17.1279ZM9.55813 20.0581H14.4418C14.4418 20.7058 14.1846 21.3269 13.7266 21.7848C13.2687 22.2427 12.6476 22.5 12 22.5C11.3524 22.5 10.7313 22.2427 10.2733 21.7848C9.81539 21.3269 9.55813 20.7058 9.55813 20.0581V20.0581Z" fill="#1B1C22"/>
</g>
<defs>
<clipPath id="clip0_534_2485">
<rect width="24" height="24" fill="white"/>
</clipPath>
</defs>
</svg>
