<svg width="24" height="24" viewBox="0 0 24 24" fill="none" xmlns="http://www.w3.org/2000/svg">
<circle cx="12" cy="12" r="9" stroke="#1B1C22" stroke-width="2"/>
<path d="M15 12C15 14.6668 14.5658 17.035 13.9 18.6997C13.5659 19.5348 13.1932 20.1435 12.8304 20.527C12.4697 20.9085 12.1887 21 12 21C11.8113 21 11.5303 20.9085 11.1696 20.527C10.8068 20.1435 10.4341 19.5348 10.1 18.6997C9.43419 17.035 9 14.6668 9 12C9 9.33323 9.43419 6.96497 10.1 5.30032C10.4341 4.46523 10.8068 3.85653 11.1696 3.47296C11.5303 3.0915 11.8113 3 12 3C12.1887 3 12.4697 3.0915 12.8304 3.47296C13.1932 3.85653 13.5659 4.46523 13.9 5.30032C14.5658 6.96497 15 9.33323 15 12Z" stroke="#1B1C22" stroke-width="2"/>
<path d="M3 12H21.5" stroke="#1B1C22" stroke-width="2"/>
</svg>
